HIERARCHY
ROOT Hips
{
	OFFSET 0.000000 0.000000 0.000000
	CHANNELS 6 Xposition Yposition Zposition Zrotation Yrotation Xrotation 
	JOINT LHipJoint
	{
		OFFSET 0.000000 0.000000 0.000000
		CHANNELS 3 Zrotation Yrotation Xrotation
		JOINT LeftUpLeg
		{
			OFFSET 1.363060 -1.794630 0.839290
			CHANNELS 3 Zrotation Yrotation Xrotation
			JOINT LeftLeg
			{
				OFFSET 2.448110 -6.726130 0.000000
				CHANNELS 3 Zrotation Yrotation Xrotation
				JOINT LeftFoot
				{
					OFFSET 2.562200 -7.039590 0.000000
					CHANNELS 3 Zrotation Yrotation Xrotation
					JOINT LeftToeBase
					{
						OFFSET 0.157640 -0.433110 2.322550
						CHANNELS 3 Zrotation Yrotation Xrotation
						End Site
						{
							OFFSET 0.000000 0.000000 0.000000
						}
					}
				}
			}
		}
	}
	JOINT RHipJoint
	{
		OFFSET 0.000000 0.000000 0.000000
		CHANNELS 3 Zrotation Yrotation Xrotation
		JOINT RightUpLeg
		{
			OFFSET -1.305520 -1.794630 0.839290
			CHANNELS 3 Zrotation Yrotation Xrotation
			JOINT RightLeg
			{
				OFFSET -2.542530 -6.985550 0.000000
				CHANNELS 3 Zrotation Yrotation Xrotation
				JOINT RightFoot
				{
					OFFSET -2.568260 -7.056230 0.000000
					CHANNELS 3 Zrotation Yrotation Xrotation
					JOINT RightToeBase
					{
						OFFSET -0.164730 -0.452590 2.363150
						CHANNELS 3 Zrotation Yrotation Xrotation
						End Site
						{
							OFFSET 0.000000 0.000000 0.000000
						}
					}
				}
			}
		}
	}
	JOINT LowerBack
	{
		OFFSET 0.000000 0.000000 0.000000
		CHANNELS 3 Zrotation Yrotation Xrotation
		JOINT Spine
		{
			OFFSET 0.028270 2.035590 -0.193380
			CHANNELS 3 Zrotation Yrotation Xrotation
			JOINT Spine1
			{
				OFFSET 0.056720 2.048850 -0.042750
				CHANNELS 3 Zrotation Yrotation Xrotation
				JOINT Neck
				{
					OFFSET 0.000000 0.000000 0.000000
					CHANNELS 3 Zrotation Yrotation Xrotation
					JOINT Neck1
					{
						OFFSET -0.054170 1.746240 0.172020
						CHANNELS 3 Zrotation Yrotation Xrotation
						JOINT Head
						{
							OFFSET 0.104070 1.761360 -0.123970
							CHANNELS 3 Zrotation Yrotation Xrotation
							End Site
							{
								OFFSET 0.000000 0.000000 0.000000
							}
						}
					}
				}
				JOINT LeftShoulder
				{
					OFFSET 0.000000 0.000000 0.000000
					CHANNELS 3 Zrotation Yrotation Xrotation
					JOINT LeftArm
					{
						OFFSET 3.362410 1.200890 -0.311210
						CHANNELS 3 Zrotation Yrotation Xrotation
						JOINT LeftForeArm
						{
							OFFSET 4.983000 -0.000000 -0.000000
							CHANNELS 3 Zrotation Yrotation Xrotation
							JOINT LeftHand
							{
								OFFSET 3.483560 -0.000000 -0.000000
								CHANNELS 3 Zrotation Yrotation Xrotation
								JOINT LeftFingerBase
								{
									OFFSET 0.000000 0.000000 0.000000
									CHANNELS 3 Zrotation Yrotation Xrotation
									JOINT LeftHandIndex1
									{
										OFFSET 0.715260 -0.000000 -0.000000
										CHANNELS 3 Zrotation Yrotation Xrotation
										End Site
										{
											OFFSET 0.000000 0.000000 0.000000
										}
									}
								}
								JOINT LThumb
								{
									OFFSET 0.000000 0.000000 0.000000
									CHANNELS 3 Zrotation Yrotation Xrotation
									End Site
									{
										OFFSET 0.000000 0.000000 0.000000
									}
								}
							}
						}
					}
				}
				JOINT RightShoulder
				{
					OFFSET 0.000000 0.000000 0.000000
					CHANNELS 3 Zrotation Yrotation Xrotation
					JOINT RightArm
					{
						OFFSET -3.136600 1.374050 -0.404650
						CHANNELS 3 Zrotation Yrotation Xrotation
						JOINT RightForeArm
						{
							OFFSET -5.241900 -0.000000 -0.000000
							CHANNELS 3 Zrotation Yrotation Xrotation
							JOINT RightHand
							{
								OFFSET -3.444170 -0.000000 -0.000000
								CHANNELS 3 Zrotation Yrotation Xrotation
								JOINT RightFingerBase
								{
									OFFSET 0.000000 0.000000 0.000000
									CHANNELS 3 Zrotation Yrotation Xrotation
									JOINT RightHandIndex1
									{
										OFFSET -0.622530 -0.000000 -0.000000
										CHANNELS 3 Zrotation Yrotation Xrotation
										End Site
										{
											OFFSET 0.000000 0.000000 0.000000
										}
									}
								}
								JOINT RThumb
								{
									OFFSET 0.000000 0.000000 0.000000
									CHANNELS 3 Zrotation Yrotation Xrotation
									End Site
									{
										OFFSET 0.000000 0.000000 0.000000
									}
								}
							}
						}
					}
				}
			}
		}
	}
}
MOTION
Frames: 12
Frame Time: 0.008333
0.503131 17.789570 19.816493 -0.246859 -2.551311 11.993247 1.092416 0.691511 -0.038480 -16.967723 -6.646210 -11.737174 -0.194485 4.935481 13.335353 -0.180837 2.828377 -4.434032 0.026300 -1.046000 -2.875500 -4.900567 -0.896926 -1.377766 24.841237 8.895962 -12.583629 -1.015677 -5.588303 15.827728 0.649247 -8.726232 -8.825676 -0.406800 -4.094700 11.343300 16.347866 -4.179376 14.769720 6.536059 -2.706783 1.682450 9.686085 -2.156673 0.911181 -4.719045 -13.101085 -4.917302 2.123422 -17.768891 25.837815 -1.453400 -7.729500 11.504200 1.913182 4.643984 -0.052493 -91.748235 2.468440 45.874706 34.499819 -45.490086 -14.751264 0.412197 0.098463 1.523407 10.463384 41.771246 6.729600 -7.125000 0.000000 0.000000 -37.790100 68.634700 -22.594200 0.157408 -4.118506 -1.512418 65.213251 19.660500 5.580012 -12.510983 22.579840 -1.414690 1.312174 0.325848 4.297972 -38.651274 27.960965 -20.737100 7.125000 0.000000 0.000000 -5.717900 3.339900 -6.071000 
0.495932 17.792105 19.815074 -0.096997 -2.385976 11.948119 1.089500 0.696823 -0.042381 -17.104176 -6.623199 -11.516569 -0.221905 4.788584 12.931340 -0.169583 2.716393 -4.144965 0.033800 -1.186800 -3.262900 -4.890166 -0.902184 -1.365153 24.713979 8.893914 -12.935842 -1.075937 -5.811006 16.458904 0.634512 -8.652483 -8.961962 -0.300500 -3.524900 9.743700 16.414079 -4.142180 14.929302 6.563919 -2.598795 1.704268 9.715885 -2.106577 0.870901 -4.398987 -13.112936 -5.022831 1.815621 -17.770615 25.768794 -1.633200 -7.725600 11.427300 1.923569 4.629928 -0.057249 -91.763227 2.492254 46.070388 34.674750 -45.613047 -14.876021 0.409712 0.102726 1.345645 10.016463 41.896991 6.443700 -7.125000 0.000000 0.000000 -38.459400 68.583800 -22.995300 0.176780 -4.131927 -1.518623 65.348606 19.642889 4.431443 -12.730418 22.958668 -1.502746 1.300775 0.324694 5.541108 -39.376412 27.289335 -20.745700 7.125000 0.000000 0.000000 -6.284100 2.783200 -6.621000 
0.501306 17.790280 19.811727 0.442441 -2.300005 11.867564 1.088625 0.697444 -0.043636 -17.736159 -6.641919 -11.377264 -0.231469 4.733444 12.779086 -0.147629 2.556582 -4.069627 0.049500 -1.435500 -3.948000 -4.858561 -0.897871 -1.376186 24.052804 8.687173 -13.088530 -1.119112 -5.931971 16.827124 0.607314 -8.520482 -9.241160 -0.366000 -3.886100 10.756300 16.132443 -4.191286 15.107912 6.508715 -2.656128 1.739924 9.720783 -2.145913 0.910757 -4.285961 -13.000906 -5.315514 1.742394 -17.623744 26.121248 -1.695600 -7.623800 11.632000 1.913955 4.637486 -0.063488 -91.760338 2.484621 45.793171 34.861795 -45.745873 -15.005940 0.406994 0.107090 1.707418 8.864141 42.107799 5.688200 -7.125000 0.000000 0.000000 -39.976600 68.366500 -23.820200 0.167457 -4.126165 -1.511039 65.375896 19.988766 4.204488 -12.537528 22.604571 -1.370220 1.301438 0.304606 6.218939 -40.869132 27.462553 -21.855000 7.125000 0.000000 0.000000 -7.100600 3.488400 -7.576400 
0.495324 17.793727 19.811220 0.357034 -2.125441 11.869232 1.085000 0.700359 -0.042638 -17.576644 -6.892287 -11.304309 -0.236955 4.718313 12.731722 -0.161393 2.644468 -4.002980 0.018900 -0.888500 -2.442000 -4.860632 -0.902888 -1.366257 24.195372 8.656125 -13.268851 -1.141062 -6.024863 17.087984 0.614227 -8.596543 -9.333448 -0.281700 -3.413600 9.432500 16.397784 -4.248768 15.172405 6.564930 -2.666853 1.726592 9.741261 -2.146701 0.809910 -4.538410 -12.920214 -5.053887 1.736781 -17.480437 26.229881 -1.617000 -7.591100 11.644900 1.918051 4.635335 -0.057577 -91.850795 2.661790 45.632613 35.004174 -45.841692 -15.109730 0.406279 0.105572 1.550731 9.036167 41.869291 5.778800 -7.125000 0.000000 0.000000 -39.388000 68.247500 -23.326900 0.167172 -4.121508 -1.505658 65.339674 19.881444 4.188671 -12.625558 22.725798 -1.370474 1.298123 0.280958 6.191903 -41.871934 28.106849 -23.008600 7.125000 0.000000 0.000000 -7.509000 4.615400 -8.156800 
0.500596 17.793727 19.804325 0.723753 -2.131442 11.891206 1.060982 0.693763 -0.037205 -17.970127 -6.794807 -11.419930 -0.241101 4.708930 12.699722 -0.071447 2.116426 -4.667738 0.023600 -0.992200 -2.727300 -4.842512 -0.896522 -1.359719 23.692158 8.667049 -13.529316 -1.180447 -6.139564 17.425714 0.595115 -8.502812 -9.491048 -0.374500 -3.930500 10.881100 16.186349 -4.313890 15.242299 6.606976 -2.755290 1.732762 9.996608 -2.206215 0.800129 -4.868257 -12.793322 -5.153651 1.547042 -17.204642 26.362743 -1.614800 -7.521100 11.745900 1.910978 4.633183 -0.052107 -92.213380 2.780324 45.243672 35.204848 -45.974234 -15.243481 0.402096 0.110261 1.299578 8.718620 42.348387 5.618100 -7.125000 0.000000 0.000000 -40.547000 68.496400 -24.315100 0.157395 -4.121097 -1.503218 65.057699 20.114701 4.201480 -12.740045 22.927647 -1.408806 1.299043 0.265634 6.448223 -42.084799 28.453006 -23.406300 7.125000 0.000000 0.000000 -7.541200 5.101900 -8.251000 
0.491268 17.794944 19.801284 0.496485 -1.844694 11.922542 1.075864 0.696323 -0.044351 -17.653914 -6.955726 -11.543926 -0.220364 4.757159 12.826409 -0.107789 2.262034 -3.844337 0.004200 -0.416100 -1.143300 -4.855293 -0.909177 -1.351517 24.037537 8.520066 -13.734075 -1.193025 -6.198600 17.586761 0.608907 -8.581235 -9.392526 -0.266300 -3.319800 9.170300 16.551008 -4.411569 15.246546 6.660679 -2.833398 1.746960 9.942607 -2.241136 0.825829 -4.952538 -12.664305 -5.227804 1.742248 -17.041814 26.494634 -1.512900 -7.431500 11.849900 1.904570 4.643074 -0.055201 -92.093333 2.836959 45.328833 35.230056 -45.992431 -15.264092 0.407403 0.101947 1.132482 10.474574 42.164824 6.791200 -7.125000 0.000000 0.000000 -38.474500 68.933800 -23.296000 0.162350 -4.113267 -1.493651 65.233294 20.203327 4.018761 -12.816071 23.048432 -1.424005 1.293434 0.260765 6.776095 -42.841143 28.375366 -23.887800 7.125000 0.000000 0.000000 -7.984000 5.292700 -8.768600 
0.482345 17.794437 19.787595 0.964622 -1.876463 11.973236 1.082360 0.689257 -0.056550 -18.127150 -6.955992 -11.718601 -0.216628 4.765475 12.837353 -0.092025 2.138486 -3.703897 0.004600 -0.438100 -1.203700 -4.837205 -0.890005 -1.332135 23.430363 9.010910 -13.877173 -1.224043 -6.320825 17.931649 0.632447 -8.901185 -9.839291 -0.477400 -4.431000 12.292400 16.100535 -4.321901 15.480778 6.604291 -2.698693 1.734539 10.047082 -2.185804 0.697414 -4.615707 -12.664460 -5.353390 1.546241 -17.051590 26.416563 -1.664200 -7.413400 11.792200 1.920009 4.625759 -0.062499 -91.999347 2.751431 45.381994 35.217740 -45.986974 -15.256284 0.405115 0.104588 1.009687 10.278681 42.019498 6.640100 -7.125000 0.000000 0.000000 -38.406500 68.761100 -23.107400 0.164095 -4.117945 -1.505156 65.220997 20.211972 4.034348 -12.946037 23.236070 -1.463809 1.285094 0.269215 6.274000 -43.360484 28.435484 -24.307100 7.125000 0.000000 0.000000 -8.256700 5.565300 -9.109600 
0.478086 17.795958 19.787696 0.941449 -1.655135 11.997853 1.072456 0.685504 -0.051793 -18.052526 -6.878893 -11.892075 -0.203584 4.803894 12.942839 -0.032042 1.746686 -3.932304 0.001500 -0.251700 -0.691600 -4.829786 -0.896706 -1.324149 23.479306 8.842749 -14.100759 -1.253390 -6.412782 18.198654 0.617397 -8.787556 -9.852326 -0.380000 -3.959000 10.961300 16.314795 -4.448636 15.460082 6.621589 -2.836425 1.712768 9.982352 -2.245916 0.667584 -4.567489 -12.514031 -5.393441 1.385211 -16.825205 26.585654 -1.713700 -7.318000 11.855600 1.920046 4.624097 -0.064867 -91.908739 2.827780 45.337542 35.309764 -46.052906 -15.327015 0.405433 0.103479 0.798959 10.444900 41.684696 6.709500 -7.125000 0.000000 0.000000 -37.650800 68.564700 -22.445100 0.162045 -4.119519 -1.505472 65.312879 20.202117 4.410580 -13.072086 23.432670 -1.506826 1.281153 0.264795 6.021003 -43.794231 28.687669 -24.814000 7.125000 0.000000 0.000000 -8.430800 6.039000 -9.368200 
0.472915 17.793525 19.783235 1.387227 -1.752597 11.901063 1.072441 0.687430 -0.061816 -18.549729 -6.852602 -11.764374 -0.225426 4.772165 12.841593 -0.093209 2.197430 -4.099479 0.000300 -0.119600 -0.328600 -4.806075 -0.889850 -1.316789 22.974112 8.963809 -14.368474 -1.318926 -6.623310 18.809229 0.623794 -8.916617 -10.078357 -0.342300 -3.759700 10.401500 15.941847 -4.290588 15.652849 6.584471 -2.623461 1.737709 10.097179 -2.153198 0.627761 -4.602791 -12.570261 -5.509906 1.264054 -16.864384 26.593310 -1.770400 -7.345000 11.886500 1.922045 4.619208 -0.067642 -91.955587 2.851471 45.473961 35.466826 -46.161000 -15.441174 0.402723 0.105632 1.128097 9.708933 41.737314 6.220100 -7.125000 0.000000 0.000000 -38.480400 68.366300 -22.827900 0.158138 -4.118170 -1.503875 65.199973 20.355412 3.567527 -12.833002 23.026371 -1.350982 1.289118 0.192283 6.463961 -44.612997 30.334993 -26.664100 7.125000 0.000000 0.000000 -8.433700 8.337500 -9.665500 
0.471191 17.792815 19.786277 1.356956 -1.521129 11.885244 1.065827 0.683386 -0.066130 -18.482728 -6.865475 -11.812647 -0.212902 4.803567 12.927346 -0.049397 1.898976 -4.140412 0.002700 0.337900 0.928500 -4.799540 -0.895741 -1.319944 23.010826 8.750371 -14.594044 -1.361393 -6.747777 19.173592 0.598731 -8.724013 -10.089157 -0.364800 -3.880000 10.739200 16.226213 -4.219565 15.646745 6.627130 -2.493210 1.773531 10.050088 -2.089602 0.705485 -4.703837 -12.669978 -5.886846 1.433978 -16.999677 26.758311 -1.731600 -7.375400 12.093600 1.914514 4.638184 -0.073482 -91.946375 2.635149 45.958674 35.459865 -46.152490 -15.437761 0.402801 0.107307 0.986204 9.580779 41.853288 6.147100 -7.125000 0.000000 0.000000 -38.812200 68.411500 -23.084900 0.152198 -4.102876 -1.513585 64.940133 20.166152 3.549859 -12.969791 23.270831 -1.411335 1.288742 0.167119 6.859420 -44.543929 30.801809 -26.950400 7.125000 0.000000 0.000000 -8.261400 8.860300 -9.527400 
0.459733 17.782371 19.776340 1.953893 -1.696361 11.770959 1.070987 0.682506 -0.073362 -19.120828 -6.794477 -11.798286 -0.208757 4.826377 12.985205 -0.052807 1.917153 -4.110260 0.014300 0.773100 2.124800 -4.777597 -0.874669 -1.308926 22.357462 9.202352 -14.629349 -1.410000 -6.908086 19.643369 0.629074 -9.082237 -10.467945 -0.259400 -3.277000 9.051000 15.484725 -4.133772 15.908251 6.570414 -2.405244 1.780721 10.322524 -2.069369 0.609344 -4.583956 -12.603286 -5.860362 1.140183 -16.871348 26.759198 -1.858400 -7.335100 12.039300 1.924302 4.619811 -0.073869 -92.000020 2.714462 45.932732 35.564499 -46.228943 -15.515006 0.401162 0.106417 0.821366 10.093055 41.670567 6.472200 -7.125000 0.000000 0.000000 -37.974700 68.440000 -22.556000 0.157726 -4.113965 -1.510343 65.073095 20.351040 2.766705 -12.929719 23.214896 -1.373425 1.285794 0.119019 8.824813 -45.317257 30.884742 -27.621800 7.125000 0.000000 0.000000 -8.655100 9.287500 -10.044600 
0.460747 17.778721 19.788001 1.703269 -1.359390 11.745342 1.054049 0.679884 -0.069841 -18.821783 -6.733353 -11.710137 -0.214549 4.788358 12.888114 -0.020702 1.716788 -4.291630 0.001600 -0.260900 -0.716800 -4.771977 -0.892114 -1.299143 22.664792 8.934887 -14.914566 -1.472806 -7.101353 20.206062 0.593919 -8.848496 -10.647852 -0.311200 -3.586400 9.916000 15.978363 -4.254731 15.716167 6.629716 -2.557148 1.804372 10.163375 -2.127203 0.748673 -4.269691 -12.489583 -5.770127 0.807534 -16.700846 26.555715 -2.005800 -7.281400 11.839500 1.926772 4.610485 -0.067813 -92.100805 2.775761 45.759162 35.600529 -46.254345 -15.541456 0.402119 0.105940 1.184812 9.456715 41.780171 6.055200 -7.125000 0.000000 0.000000 -38.808200 68.317500 -23.003200 0.172950 -4.145091 -1.513907 65.111659 20.316162 3.098270 -13.006548 23.347228 -1.407121 1.279433 0.128051 9.431986 -45.863325 30.259359 -27.588600 7.125000 0.000000 0.000000 -9.129700 8.782600 -10.541300 
